.
 
http://www.scenetime.com    -  Hottest private tracker on the net. !!!

New release on http://www.scenetime.com

        Seed back for speed


...................................NFO:.................................................[pre][IMG]http://i.imgur.com/LYmBL.jpg[/IMG]

*******************************************************************************
                      Immortals.2011.R5.XviD-PRESTiGE
*******************************************************************************


[color=red]General Information:[/color]

Complete name                    : Immortals.2011.R5.XviD-PRESTiGE
Format                           : AVI
Format/Info                      : Audio Video Interleave
File size                        : 1.20 GiB
Duration                         : 1h 41mn
Overall bit rate                 : 1 705 Kbps
Subs				 : N/A
Source				 : DTRG Many THANKS
Encoder				 : [b][color=maroon]akosipalos[/color][/b]

[color=lime]iMDB:[/color] http://www.imdb.com/title/tt1253864/

[color=red]Video[/color]

ID                               : 0
Format                           : MPEG-4 Visual
Format profile                   : Advanced Simple@L5
Format settings, BVOP            : 2
Format settings, QPel            : No
Format settings, GMC             : No warppoints
Format settings, Matrix          : Default (H.263)
Codec ID                         : XVID
Codec ID/Hint                    : XviD
Duration                         : 1h 41mn
Bit rate                         : 1 571 Kbps
Width                            : 672 pixels
Height                           : 368 pixels
Display aspect ratio             : 16:9
Frame rate                       : 25.000 fps
Color space                      : YUV
Chroma subsampling               : 4:2:0
Bit depth                        : 8 bits
Scan type                        : Progressive
Compression mode                 : Lossy
Bits/(Pixel*Frame)               : 0.254
Stream size                      : 1.11 GiB (92%)
Writing library                  : XviD 1.2.1 (UTC 2008-12-04)

[color=red]Audio[/color]

ID                               : 1
Format                           : MPEG Audio
Format version                   : Version 1
Format profile                   : Layer 3
Mode                             : Joint stereo
Mode extension                   : MS Stereo
Codec ID                         : 55
Codec ID/Hint                    : MP3
Duration                         : 1h 41mn
Bit rate mode                    : Constant
Bit rate                         : 128 Kbps
Channel(s)                       : 2 channels
Sampling rate                    : 48.0 KHz
Compression mode                 : Lossy
Stream size                      : 92.6 MiB (8%)
Alignment                        : Aligned on interleaves
Interleave, duration             : 160 ms (4.00 video frames)
Interleave, preload duration     : 216 ms
Writing library                  : LAME3.98r


[color=red]Plot:[/color]

Theseus is a mortal man chosen by Zeus to lead the fight against the ruthless King Hyperion, 
who is on a rampage across Greece to obtain a weapon that can destroy humanity.

[color=red]Screens:[/color]

[URL=http://www.imagebam.com/image/b24c8a169868758][IMG]http://thumbnails60.imagebam.com/16987/b24c8a169868758.jpg[/IMG][/URL] [URL=http://www.imagebam.com/image/b41d56169868762][IMG]http://thumbnails56.imagebam.com/16987/b41d56169868762.jpg[/IMG][/URL] [URL=http://www.imagebam.com/image/cd3b03169868784][IMG]http://thumbnails38.imagebam.com/16987/cd3b03169868784.jpg[/IMG][/URL] [URL=http://www.imagebam.com/image/13935d169868794][IMG]http://thumbnails58.imagebam.com/16987/13935d169868794.jpg[/IMG][/URL] [URL=http://www.imagebam.com/image/5e1e86169868801][IMG]http://thumbnails46.imagebam.com/16987/5e1e86169868801.jpg[/IMG][/URL] [URL=http://www.imagebam.com/image/b84a09169868808][IMG]http://thumbnails57.imagebam.com/16987/b84a09169868808.jpg[/IMG][/URL]    


[b][color=red]Release Notes:[/color][/b]

WE DONT RELEASE EVERYTHiNG TO OTHERS SiTES YOU WANT MORE OF OUR STUFF COME FiND US AT .......

WE ARE LOOKING FOR SUPPLiERS BLURAY, CAM, R5, PRE RETAiL DVD GOT SOMETHiNG WE MiGHT LiKE WHEN YOU FiND US TELL US.......


[center][b][color=red]GREETZ:[/color][/b]

Twisted | Bigguy | CTFX | Whitestag13 | THoRN | SANTi | PA4U2C | Jungledave | mtyy
| marsby | cld | Stortrapp | rizal | mannilim | Rock | Ulap | centserick2 |
musikera | Tukmol | rock3r | canislupus | sickie | fun2knytz | lilyrose
 EXQUiSiTE | TRiNiTY | RiZAL Team RG | LEGiTiMATE | HiVE-CM8 | BHRG | DTRG 
  CrEwSaDe | Rx | LKRG | THC | aTLas

[img]http://i824.photobucket.com/albums/zz161/akosipalos/PRESTiGE-3.png[/img]

[b][color=red]PRESTiGE[/color] is the level of respect at which one is regarded by others....RIzE Above Or Sink Below...[/b]
[/center][/pre]